<svg width="38" height="22" viewBox="0 0 38 22" fill="none" xmlns="http://www.w3.org/2000/svg"><path d="M1.664 19.661a8.174 8.174 0 0 1-1.4-5.148v-7.44a8.3 8.3 0 0 1 1.38-5.197C2.571.692 4.154.104 6.394.11c2.24.007 3.757.526 4.55 1.557a6.628 6.628 0 0 1 1.33 4.454v1.746h-4.14V5.972a9.842 9.842 0 0 0-.13-1.487 1.661 1.661 0 0 0-.47-.943 1.564 1.564 0 0 0-1.15-.367 1.47 1.47 0 0 0-1.5.744 5.386 5.386 0 0 0-.34 2.182v9.444a4.708 4.708 0 0 0 .39 2.182 1.49 1.49 0 0 0 1.45.724c.282.04.569-.01.82-.142.252-.132.455-.34.58-.592a5.75 5.75 0 0 0 .31-2.172V13.56h4.14v1.716a7.147 7.147 0 0 1-1.23 4.572c-.88 1.092-2.4 1.627-4.56 1.627-2.16 0-3.85-.595-4.78-1.815ZM17.915.398h4.74l4 20.83h-3.94l-.71-4.602h-3.32l-.8 4.573h-4L17.915.398Zm3.65 13.61-1.26-8.373-1.25 8.372h2.51ZM29.726 3.532h-3.24V.398h10.72v3.134h-3.2V21.2h-4.29l.01-17.667Z" fill="currentColor"/></svg>
