<svg width="73" height="22" viewBox="0 0 73 22" fill="none" xmlns="http://www.w3.org/2000/svg"><path d="M.616.398h8.13V2.56h-5.2v6.874h4.22v2.054h-4.22v7.628h5.25v2.083H.616V.398ZM11.157.398h2l6 13.817V.398h2.44v20.83h-1.87l-6-14.204v14.175h-2.48L11.157.398ZM24.828.398h8.12V2.56h-5.2v6.874h4.26v2.054h-4.22v7.628h5.22v2.083h-8.18V.398ZM35.358.398h4.22a7.042 7.042 0 0 1 4.67 1.3c1 .862 1.49 2.27 1.49 4.225 0 2.645-.863 4.262-2.59 4.85l3 10.426h-2.84l-2.75-9.761h-2.27v9.76h-2.93V.399Zm4 8.927a3.893 3.893 0 0 0 2.7-.754 3.533 3.533 0 0 0 .82-2.688 5.76 5.76 0 0 0-.29-1.984 1.872 1.872 0 0 0-1-1.071 4.795 4.795 0 0 0-2.05-.347h-1.29v6.884l1.11-.04ZM49.679 19.661a9.116 9.116 0 0 1-1.27-5.307V7.411c-.035-1.34.134-2.678.5-3.968a4.445 4.445 0 0 1 1.74-2.39 5.948 5.948 0 0 1 3.36-.834 5.3 5.3 0 0 1 2.253.276c.722.254 1.38.66 1.927 1.192a6.903 6.903 0 0 1 1.28 4.593v.774h-2.75v-.645a11.302 11.302 0 0 0-.18-2.301 1.982 1.982 0 0 0-.76-1.22 3.02 3.02 0 0 0-1.72-.407 2.534 2.534 0 0 0-1.81.555c-.415.39-.686.907-.77 1.468a14.566 14.566 0 0 0-.17 2.47v7.727a7.396 7.396 0 0 0 .59 3.433 2.85 2.85 0 0 0 4.47-.09 7.986 7.986 0 0 0 .61-3.62v-1.468h-2.66v-2.054h5.3V21.2h-1.81l-.29-2.391a3.66 3.66 0 0 1-1.4 1.969c-.677.48-1.498.72-2.33.68a4.694 4.694 0 0 1-2.288-.375 4.655 4.655 0 0 1-1.822-1.42ZM65.7 13.858 61.17.398h2.72l3.21 10.038L70.26.398h2.75l-4.5 13.46v7.34h-2.8l-.01-7.34Z" fill="currentColor"/></svg>
